Patient4_TMGait_0pt2_03_left_18_EMG.mot
version=1
nRows=30
nColumns=33
inDegrees=no
endheader
time	1LAddLong	2LGlutMax	3LGlutMed	4LIliopsoas	5LSemiMemb	6LBicFemLong	7LRecFem	8LVastMed	9LVastLat	10LGasMed	11LTibAnt	12lTibPost	13LPeroneusLong	14LSol	15LExtDigLong	16LFlexDigLong	17RAddLong	18RGlutMax	19RGlutMed	20RIliopsoas	21RSemiMemb	22RBicFemLong	23RRecFem	24RVastMed	25RVastLat	26RGasMed	27RTibAnt	28RTibPost	29RPeroneusLong	30RSol	31RExtDigLong	32RFlexDigLong
38.287	-0.009003	0.061951	-0.024414	-0.016022	0.014801	-0.016327	0.049286	0.001068	0.086975	0.057831	0.067749	0.004578	-0.12512	0.016632	-0.020752	0.003052	0.009613	0.043793	-0.078583	-0.06424	-0.057068	-0.042725	0.1239	0.000305	0.011139	-0.002136	-0.005188	-0.003357	-0.11749	-0.23025	-0.005035	-0.011444
38.288	-0.004425	-0.012665	0.006409	0.012817	-0.002747	-0.1265	0.01297	0.004883	0.10834	0.061188	0.071411	0.007629	-0.12268	-0.030365	0.24368	-0.00351	0.027771	-0.009308	0.094452	-0.036469	-0.1355	-0.036316	0.14999	-0.029449	-0.000153	0.033264	0.020294	0	-0.3743	-0.063171	0.000305	-0.009918
38.289	-0.00824	0.009155	0.049896	0.019379	-0.048828	-0.18204	-0.000916	0.004425	0.11505	0.05722	0.1799	0.003815	-0.08606	-0.081024	-0.19028	0.00351	0.029144	0.036774	0.081787	0.020905	-0.14343	0.016937	0.12421	0.002441	0.011749	0.039215	0.039825	0.000305	-0.40649	0.16434	-0.000458	-0.005798
38.29	-0.024719	0.009308	-0.00946	0.009308	-0.06134	-0.15366	-0.011444	0.005341	0.11704	0.033875	0.121	0.006714	-0.034027	-0.10895	-0.23132	0.001678	0.006409	-0.005341	-0.27054	0.10666	0.10773	0.044098	0.13611	-0.015411	0.011902	0.051575	0.032196	0.006714	-0.39063	0.078888	0.001831	-0.010223
38.291	-0.018005	0.029907	-0.10727	0.017548	-0.062866	-0.083618	0.037384	0.010986	0.035706	0.010529	0.07431	0.007477	-0.005951	-0.098724	-0.60303	0.016632	-0.019073	-0.062714	-0.034943	0.048218	0.08667	0.044708	0.11093	-0.017548	0.000153	0.050507	-0.005188	-0.004883	-0.37872	-0.24933	-0.001984	-0.008698
38.292	-0.000153	0.037994	-0.10956	0.012512	-0.02121	-0.016022	-0.002289	0.005341	-0.07019	0.007324	0.14557	0.001373	0.017395	-0.10178	0.23132	0.00412	-0.024719	-0.024719	0.049133	-0.025787	0.098419	0.065308	0.12039	-0.037231	0.008392	0.018921	-0.034027	-0.011444	-0.5954	-0.66452	0.001526	-0.012817
38.293	0.024261	0.024872	0.055389	0.010681	0.059357	-0.036011	0.048218	0.049744	-0.16983	0.005646	0.095215	-0.002289	-0.010223	-0.062103	0.22797	0.01709	-0.02655	0.006714	0.20309	-0.065613	0.028687	0.024719	0.096588	0.005035	0.014496	0.007935	-0.012817	-0.043488	-0.28549	-0.85388	-0.002899	-0.012207
38.294	0.026245	0.000305	0.083923	0.011139	0.057831	-0.016785	0.056458	0.005341	-0.26215	0.052795	-0.04303	0.001526	-0.006561	0.018463	0.19348	0.002594	-0.01297	-0.008545	0.097046	-0.054016	-0.01297	-0.006561	0.11078	-0.009766	0.011749	-0.021362	0.002899	-0.16022	0.85159	-0.79117	-0.002441	-0.009155
38.295	0.01709	0.021973	0.016174	0.005341	0.051727	0.025177	0.044708	0.014038	0.010223	0.053558	-0.079346	-0.006256	0.020599	0.020905	-0.1886	0.00351	-0.011292	-0.079041	-0.15656	-0.091553	-0.03067	-0.005341	0.088501	-0.035095	0.015106	-0.087891	0.010071	0.075073	0.59357	-0.37811	-0.003357	-0.004272
38.296	0.005035	0.02243	0.072937	-0.011902	0.009766	0.079041	-0.025177	0.014496	0.1294	0.020905	-0.3537	0.011292	0.057373	0.031738	0.054169	0.012207	-0.013885	-0.026245	-0.10574	-0.057831	-0.047302	0.004425	0.092773	0.033112	0.028992	-0.068054	-0.019531	-0.18402	0.69565	0.5159	-0.000916	0.011597
38.297	0	0.05722	-0.026703	-0.003967	-0.045013	0.097046	-0.053406	0.020905	0.18265	0.021973	-0.4184	0.002899	0.086517	0.054016	0.54077	0.005798	-0.010529	-0.07309	-0.23758	-0.00824	-0.009613	0.018768	0.031433	0.012054	0.019684	-0.064545	-0.024719	0.1088	0.59631	1.0139	-0.001068	-0.010223
38.298	0.007172	0.11322	0.045166	-0.001068	-0.053101	0.070801	-0.050201	0.025177	0.15137	0.024872	-0.14816	-0.00885	0.062103	0.083008	0.078583	-0.010529	0.004883	-0.10696	-0.32059	0.011749	0.099945	0.044861	0.074005	0.015564	0.014038	-0.037994	-0.021973	0.39124	0.16678	0.30411	0.004883	-0.009613
38.299	0.009613	0.16693	-0.020142	0.016022	-0.055389	0.009613	-0.16586	0.029907	0.10986	0.019226	-0.1297	-0.013275	-0.005493	0.10117	0.22018	0.006866	0.0177	-0.077362	-0.21027	0.032654	0.067291	0.098267	0.103	-0.013885	0.000305	-0.00412	0.014496	0.11505	-0.31311	0.34698	-0.00351	-0.006866
38.3	0.012817	0.18021	0.016632	0.010223	-0.042725	0.047913	-0.084534	0.015411	-0.035248	-0.007324	-0.0177	-0.04715	0.023804	0.12222	-0.30304	0.014343	0.028381	0.06424	-0.15335	0.02533	-0.010376	0.096436	0.12009	-0.010986	0.016479	-0.002136	0.027618	0.033112	0.20935	0.30914	-0.001831	-0.010986
38.301	0.010376	0.18463	0.023193	0.007629	0.025635	0.039825	-0.004272	-0.009613	-0.29388	-0.043335	0.1535	-0.10666	0.049438	0.15182	-0.17227	0.005646	0.014038	0.021057	-0.14008	0.0737	-0.038757	0.063171	0.12161	-0.005341	0.020752	-0.014801	0.061493	0.018768	0.37735	0.07843	-0.000305	-0.013885
38.302	0.010529	0.23254	0.27649	0.003052	0.046234	-0.044098	-0.041046	-0.021362	-0.34882	0.00412	0.024719	-0.13611	0.007324	0.1387	-0.42236	0.000916	0.004425	-0.032501	-0.042419	0.066681	0.017395	0.028687	0.053253	0.007172	0.027008	-0.038757	0.06134	-0.063171	0.30838	-0.31433	-0.001831	-0.019531
38.303	0.002899	0.20065	0.15793	0.006409	0.023956	-0.12054	-0.020905	-0.023193	-0.22125	0.039673	0.030823	-0.15991	-0.023041	0.024261	-0.53863	0.001831	0.007935	-0.078125	-0.092926	0.051422	0.065308	-0.02594	0.094147	0.00473	0.033875	-0.050964	0.007782	-0.12466	0.72388	-0.19089	-0.00061	-0.005646
38.304	-0.000458	0.18051	0.10742	0.003967	-0.028534	0.004425	-0.016022	-0.017242	-0.12253	0.027161	0.056763	-0.16617	-0.0383	-0.068359	-0.28656	0.014038	0.005646	-0.078888	-0.30167	0.0737	0.008698	-0.058289	0.11322	-0.020752	0.021057	-0.057373	-0.026398	-0.017242	0.27359	0.54352	-0.001373	-0.000763
38.305	0.006409	0.14358	0.073242	0.015411	-0.014648	0.10788	-0.032043	-0.006256	-0.056458	0.02533	0.23056	-0.1564	-0.063019	-0.11841	0.048065	0.01236	0.015564	-0.079498	-0.27435	0.038452	-0.012207	-0.025024	0.098572	-0.012054	0.014801	-0.053406	-0.00824	0.098114	-0.24429	0.37933	0.002136	0.00061
38.306	-0.000916	0.088196	0.03479	0.012054	-0.05127	0.15366	-0.011597	-0.011292	0.034943	0.006409	-0.1387	-0.12192	0.10407	-0.1442	0.15472	0.004272	0.037079	-0.054626	-0.18631	0.027618	-0.012512	0.039673	0.074005	-0.032501	0.026855	-0.043335	0.028229	0.074158	0.06424	0.14633	0.000763	-0.009766
38.307	-0.000305	0.003052	0.029755	-0.00061	-0.029907	0.045013	-0.045624	0.000458	0.046997	-0.029907	-0.097351	-0.086212	0.15427	-0.1178	0.09201	0.013428	0.045013	-0.04303	-0.22842	0.043182	-0.021362	-0.013733	0.13092	-0.080566	0.004578	-0.014954	-0.016785	-0.28214	0.42114	0.1976	0.000763	-0.007019
38.308	0.007172	-0.032196	-0.004578	-0.002289	-0.065918	-0.079803	-0.068054	0.00061	0.053558	-0.003662	-0.014038	-0.067139	-0.018768	-0.063171	0.20798	0.016632	0.058441	-0.02655	-0.1152	0.07782	-0.068054	0.036316	0.1294	-0.080414	0.020752	0.041656	-0.016785	-0.081177	0.13001	0.37186	0.001678	-0.000763
38.309	0.011292	-0.12009	-0.011749	-0.02243	-0.038605	-0.12085	-0.032806	0.001068	0.050507	0.011749	0.025787	-0.037994	0.045776	-0.062714	0.10956	0.013733	0.026093	0.009766	-0.1799	0.082397	-0.10437	0.17197	0.13107	-0.041046	0.023346	0.055695	-0.014038	0.23331	-0.49423	0.045166	-0.002136	0.00885
38.31	0.014648	-0.1474	-0.011597	-0.018158	0.037994	-0.011749	-0.035248	-0.007782	0.049438	0.022736	0.059357	-0.014801	0.039215	-0.057678	0.067749	0.009003	-0.006866	-0.006256	0.11017	0.009613	-0.19318	0.28686	0.13336	-0.066681	0.038452	0.014191	-0.005951	0.079498	-0.48187	-0.224	-0.001831	-0.006561
38.311	0.016479	-0.21194	-0.041962	0.023041	0.08728	-0.14328	0.037079	-0.005798	0.018463	0.02655	0.079803	0.003967	-0.076447	-0.010223	0.14847	0.005188	-0.031738	-0.009918	0.00946	-0.000916	0.068665	0.041656	0.12909	-0.01236	0.016937	0.009766	-0.006714	-0.014038	-0.20599	0.015411	0.005798	-0.003204
38.312	0.025024	-0.25101	-0.056152	0.041199	0.10941	-0.090485	0.023651	0.005188	-0.072937	-0.002136	0.08316	0.020142	-0.168	-0.009766	0.041809	0.007629	-0.037537	-0.030365	-0.21316	-0.10147	0.29953	-0.047913	0.11047	0.024719	0.015869	0.001068	-0.027618	0.005188	-0.095215	0.26199	-0.000458	-0.00946
38.313	0.009613	-0.24094	-0.076599	0.031433	0.054474	-0.013428	0.031586	-0.000305	-0.1445	-0.007172	0.02533	0.032959	-0.21622	0.012512	-0.004425	0.009003	-0.015564	0.055695	-0.31433	-0.12268	0.080109	0.076752	0.14999	0.029602	0.001373	0.007172	0.010834	-0.017242	0.13001	0.31677	-0.005341	-0.005035
38.314	0.00885	-0.23697	-0.083008	0.009918	0.02533	0.007629	0.048065	0.002899	-0.10651	0.010071	-0.065918	0.03418	0.3009	0.031738	0.08316	0.008392	0.005341	0.077057	-0.327	-0.086517	-0.037689	0.023193	0.11307	0.021362	0.016174	0.013733	-0.00473	-0.015564	0.14511	0.22018	-0.001831	-0.015564
38.315	-0.002594	-0.25452	-0.11444	0.00351	0.0177	-0.030975	0.066223	0.009918	-0.079346	0.015869	-0.055237	0.040283	0.2124	0.055084	0.20889	0.001831	-0.00061	0.066376	-0.22964	-0.067749	0.13534	-0.050354	0.13825	0.066681	0.007477	0.029755	0.004883	-0.020447	0.077209	-0.004883	-0.002289	-0.013123
38.316	-0.006561	-0.24536	-0.16205	-0.001526	0.014496	-0.043488	0.069733	0.005493	-0.062408	0.024109	-0.038147	0.051575	0.20615	0.028381	0.26825	-0.005341	0.01358	0.021362	-0.1622	0.038757	0.14893	-0.039368	0.15137	0.0383	0.006866	0.052338	0.054626	-0.023499	0.096741	-0.24094	0.003662	-0.01358
